<svg id="visual" viewBox="0 0 900 600" width="900" height="600" xmlns="http://www.w3.org/2000/svg" xmlns:xlink="http://www.w3.org/1999/xlink" version="1.1"><rect x="0" y="0" width="900" height="600" fill="#001220"></rect><defs><linearGradient id="grad1_0" x1="33.3%" y1="0%" x2="100%" y2="100%"><stop offset="20%" stop-color="#001220" stop-opacity="1"></stop><stop offset="80%" stop-color="#001220" stop-opacity="1"></stop></linearGradient></defs><defs><linearGradient id="grad2_0" x1="0%" y1="0%" x2="66.7%" y2="100%"><stop offset="20%" stop-color="#001220" stop-opacity="1"></stop><stop offset="80%" stop-color="#001220" stop-opacity="1"></stop></linearGradient></defs><g transform="translate(900, 0)"><path d="M0 432.7C-38.3 408.5 -76.7 384.3 -121.8 374.7C-166.8 365.1 -218.7 370 -253.3 348.7C-288 327.3 -305.4 279.7 -331.7 241C-358 202.3 -393.2 172.4 -411.5 133.7C-429.8 95 -431.2 47.5 -432.7 0L0 0Z" fill="#2f35b4"></path></g><g transform="translate(0, 600)"><path d="M0 -432.7C48.4 -432.7 96.7 -432.6 133.7 -411.5C170.7 -390.3 196.2 -348 233.4 -321.2C270.5 -294.3 319.3 -282.9 347.9 -252.7C376.5 -222.6 384.9 -173.8 395.6 -128.6C406.4 -83.3 419.5 -41.7 432.7 0L0 0Z" fill="#2f35b4"></path></g></svg>