<svg id="visual" viewBox="0 0 900 600" width="900" height="600" xmlns="http://www.w3.org/2000/svg" xmlns:xlink="http://www.w3.org/1999/xlink" version="1.1"><rect x="0" y="0" width="900" height="600" fill="#001220"></rect><defs><linearGradient id="grad1_0" x1="33.3%" y1="0%" x2="100%" y2="100%"><stop offset="20%" stop-color="#674fff" stop-opacity="1"></stop><stop offset="80%" stop-color="#674fff" stop-opacity="1"></stop></linearGradient></defs><defs><linearGradient id="grad1_1" x1="33.3%" y1="0%" x2="100%" y2="100%"><stop offset="20%" stop-color="#674fff" stop-opacity="1"></stop><stop offset="80%" stop-color="#003c92" stop-opacity="1"></stop></linearGradient></defs><defs><linearGradient id="grad1_2" x1="33.3%" y1="0%" x2="100%" y2="100%"><stop offset="20%" stop-color="#001220" stop-opacity="1"></stop><stop offset="80%" stop-color="#003c92" stop-opacity="1"></stop></linearGradient></defs><defs><linearGradient id="grad2_0" x1="0%" y1="0%" x2="66.7%" y2="100%"><stop offset="20%" stop-color="#674fff" stop-opacity="1"></stop><stop offset="80%" stop-color="#674fff" stop-opacity="1"></stop></linearGradient></defs><defs><linearGradient id="grad2_1" x1="0%" y1="0%" x2="66.7%" y2="100%"><stop offset="20%" stop-color="#003c92" stop-opacity="1"></stop><stop offset="80%" stop-color="#674fff" stop-opacity="1"></stop></linearGradient></defs><defs><linearGradient id="grad2_2" x1="0%" y1="0%" x2="66.7%" y2="100%"><stop offset="20%" stop-color="#003c92" stop-opacity="1"></stop><stop offset="80%" stop-color="#001220" stop-opacity="1"></stop></linearGradient></defs><g transform="translate(900, 0)"><path d="M0 405.6C-28 376 -56.1 346.3 -91.6 341.9C-127.2 337.6 -170.2 358.5 -202.8 351.3C-235.4 344.1 -257.7 308.8 -278.6 278.6C-299.5 248.4 -319.2 223.3 -338.6 195.5C-358 167.7 -377.2 137.1 -388.3 104C-399.4 71 -402.5 35.5 -405.6 0L0 0Z" fill="#002957"></path><path d="M0 270.4C-18.7 250.6 -37.4 230.9 -61.1 228C-84.8 225 -113.5 239 -135.2 234.2C-157 229.4 -171.8 205.9 -185.7 185.7C-199.7 165.6 -212.8 148.9 -225.7 130.3C-238.7 111.8 -251.5 91.4 -258.9 69.4C-266.3 47.3 -268.4 23.7 -270.4 0L0 0Z" fill="#004bcc"></path><path d="M0 135.2C-9.3 125.3 -18.7 115.4 -30.5 114C-42.4 112.5 -56.7 119.5 -67.6 117.1C-78.5 114.7 -85.9 102.9 -92.9 92.9C-99.8 82.8 -106.4 74.4 -112.9 65.2C-119.3 55.9 -125.7 45.7 -129.4 34.7C-133.1 23.7 -134.2 11.8 -135.2 0L0 0Z" fill="#674fff"></path></g><g transform="translate(0, 600)"><path d="M0 -405.6C32.6 -394.1 65.3 -382.6 100.9 -376.7C136.6 -370.8 175.3 -370.6 202.8 -351.3C230.4 -332 246.8 -293.7 260.9 -260.9C275 -228.1 286.7 -200.8 303.1 -175C319.5 -149.2 340.5 -124.9 358.4 -96C376.2 -67.1 390.9 -33.6 405.6 0L0 0Z" fill="#002957"></path><path d="M0 -270.4C21.8 -262.7 43.5 -255.1 67.3 -251.1C91.1 -247.2 116.8 -247 135.2 -234.2C153.6 -221.3 164.6 -195.8 173.9 -173.9C183.3 -152.1 191.2 -133.9 202.1 -116.7C213 -99.5 227 -83.3 238.9 -64C250.8 -44.7 260.6 -22.4 270.4 0L0 0Z" fill="#004bcc"></path><path d="M0 -135.2C10.9 -131.4 21.8 -127.5 33.6 -125.6C45.5 -123.6 58.4 -123.5 67.6 -117.1C76.8 -110.7 82.3 -97.9 87 -87C91.7 -76 95.6 -66.9 101 -58.3C106.5 -49.7 113.5 -41.6 119.5 -32C125.4 -22.4 130.3 -11.2 135.2 0L0 0Z" fill="#674fff"></path></g></svg>